# xmcd
# Track frame offsets:
# 150
# 12281
# 24663
# 36982
# 47630
# 57904
# 71406
# 82790
# 94145
# 106280
# 119296
# 132242
# 145031
# 157473
# 169470
# 181881
# 193152
# 207231
# 218032
# 230643
# 242803
# 254722
# 268034
# 284636
# 297016
# 308873
# 321748
# 334882
#
# Disc length: 4635 seconds
# Revision: 0
# Processed by: cddbd v1.5.2PL0 Copyright (c) Steve Scherf et al.
# Submitted via: VisiTrax 2.11.3.279 - For more info visit www.synapsa.com
#
DISCID=b812191c
DTITLE=Various (1940's) Jazz and Blues and R&B and Soul Artists - A Rhythm and Blue
DTITLE=s Chronology: 1949: CD4of4 *Remastered Tracks
DYEAR=1949
DGENRE=R&B
TTITLE0=Arthur 'Big Boy' Crudup - Shout Sister Shout*
TTITLE1=L C Williams - Shout Baby Shout*
TTITLE2=Jimmy Witherspoon - Take Me Back, Baby*
TTITLE3=Marie Knight - Gospel Train*
TTITLE4=Goree Carter - I'll Send You*
TTITLE5=Amos Milburn - Walkin' Blues*
TTITLE6=Paul Williams - Jelly Roll Boogie*
TTITLE7=Ravens The - Rickey's Blues*
TTITLE8=Fats Domino - She's My Baby*
TTITLE9=Eddie 'Cleanhead' Vinson - No Good Woman Blues*
TTITLE10=Buddy Johnson - Down Yonder*
TTITLE11=Clarence Gatemouth Brown - Boogie Rambler*
TTITLE12=Robins The - Around About Midnight*
TTITLE13=Sonny Thompson - Blue Dreams*
TTITLE14=Lightnin' Hopkins - Rollin' Woman Blues*
TTITLE15=Johnny Otis with Jimmy Ryder - Little Red Hen The*
TTITLE16=Sy Oliver - Gran'ma Plays The Numbers*
TTITLE17=Ralph Willis - I'm Gonna Rock*
TTITLE18=Muddy Walters - Little Geneva*
TTITLE19=Lonnie Johnson - Trouble Ain't Nothing But Blues*
TTITLE20=Kansasa City Jimmy - Cheating Woman*
TTITLE21=Paul Gayten - Doctor Daddy-O*
TTITLE22=Charles Brown - So Mistreated*
TTITLE23=Big J McNeely - Willie The Cool Cat*
TTITLE24=Lowell Fulson - Baby Won't You Jump With Me*
TTITLE25=Hal Singer - Midnight Jump*
TTITLE26=Johnny Moore's Three Blazers - A New Shade Of Blue*
TTITLE27=Eddie Chamblee - Back Street*
EXTD=Compilation and ReMastering: www.rhythm&bluesrecords.co.uk: 2016
EXTT0=
EXTT1=
EXTT2=
EXTT3=
EXTT4=
EXTT5=
EXTT6=
EXTT7=
EXTT8=
EXTT9=
EXTT10=
EXTT11=
EXTT12=
EXTT13=
EXTT14=
EXTT15=
EXTT16=
EXTT17=
EXTT18=
EXTT19=
EXTT20=
EXTT21=
EXTT22=
EXTT23=
EXTT24=
EXTT25=
EXTT26=
EXTT27=
PLAYORDER=
